<svg id="Layer_1" data-name="Layer 1" xmlns="http://www.w3.org/2000/svg" viewBox="0 0 922.39 922.39"><defs><style>.cls-1{fill:#19140e;}.cls-2{fill:#f4f4f4;stroke:#fff;stroke-miterlimit:10;}.cls-3{fill:#c9892e;}</style></defs><path class="cls-1" d="M732.35,352V512.36c-49,0-96,.13-143-.24-4.06,0-8.09-3.42-14.34-6.25,19.45-11.34,34.07-23.56,40.79-42.89,16.35-47.12,5.6-89.2-28.86-123-47.57-46.7-105.85-57.72-169.73-41.59a185.11,185.11,0,0,0-65.4,30.77c10.47,15.46,20.78,29.83,30.13,44.8,5.22,8.33,9.73,8.91,18.25,4.06a221.57,221.57,0,0,1,112.94-29.76c42.4.29,65.41,22.91,61.59,59.57a111.38,111.38,0,0,1-5.25,23.45C561.19,456,533.9,476.1,510,474.59c-19.25-1.19-38.6-.38-57.9-.78-7.94-.16-12,3-12.54,11.06-1.34,19.95,2.54,38.58,14.89,54.56,2.7,3.5,8.39,6.65,12.67,6.62,26.42-.24,52-4.86,75.3-18.34,2.53-1.47,7.32-2.29,9.37-.89,40.44,27.53,61.41,71.25,17.9,115-33,33.18-90.08,41.28-137.63,21.44-42.41-17.69-73.07-49-100.18-84.7-13.17-17.34-13.14-17.38-35.37-9,2.19,4.7,3.86,8.76,5.92,12.6,27.28,50.59,64,92.76,113.24,122.79,47.74,29.16,98.93,37.2,152.59,18.16,55.65-19.76,82.83-62,76.34-120.48-1.81-16.32-8.78-32.07-13.46-48.33H730c0,5.24,0,9.63,0,14-.2,45.4-.47,298.43-.55,365.75a459.68,459.68,0,0,1-166.62,31c-254.72,0-461.2-206.48-461.2-461.2S308.09,42.65,562.81,42.65c184.09,0,343,107.86,417,263.85h-352c4.68,10.36,9.53,18.75,12.32,27.8,4.55,14.75,13.56,19.06,28.6,18.1C690.18,351,711.82,352,732.35,352Z" transform="translate(-101.61 -42.65)"/><path class="cls-1" d="M1024,503.84c0,175.78-98.33,328.58-243,406.4V352.07h11.23l206.32.33A460.41,460.41,0,0,1,1024,503.84Z" transform="translate(-101.61 -42.65)"/><path class="cls-2" d="M998.56,352.4l-206.32-.33H781V910.24A455,455,0,0,1,729.43,934c.08-67.32.35-320.35.55-365.75,0-4.36,0-8.75,0-14H631.16c4.68,16.26,11.65,32,13.46,48.33,6.49,58.45-20.69,100.72-76.34,120.48-53.66,19-104.85,11-152.59-18.16-49.2-30-86-72.2-113.24-122.79-2.06-3.84-3.73-7.9-5.92-12.6,22.23-8.35,22.2-8.31,35.37,9,27.11,35.66,57.77,67,100.18,84.7C479.63,683.1,536.71,675,569.71,641.82c43.51-43.75,22.54-87.47-17.9-115-2-1.4-6.84-.58-9.37.89-23.34,13.48-48.88,18.1-75.3,18.34-4.28,0-10-3.12-12.67-6.62-12.35-16-16.23-34.61-14.89-54.56.54-8.07,4.6-11.22,12.54-11.06,19.3.4,38.65-.41,57.9.78,23.88,1.51,51.17-18.59,59.44-43.34a111.38,111.38,0,0,0,5.25-23.45c3.82-36.66-19.19-59.28-61.59-59.57A221.57,221.57,0,0,0,400.18,378c-8.52,4.85-13,4.27-18.25-4.06-9.35-15-19.66-29.34-30.13-44.8a185.11,185.11,0,0,1,65.4-30.77c63.88-16.13,122.16-5.11,169.73,41.59,34.46,33.83,45.21,75.91,28.86,123-6.72,19.33-21.34,31.55-40.79,42.89,6.25,2.83,10.28,6.22,14.34,6.25,47,.37,94,.24,143,.24V352c-20.53,0-42.17-1-63.66.36-15,1-24.05-3.35-28.6-18.1-2.79-9.05-7.64-17.44-12.32-27.8h352A461.84,461.84,0,0,1,998.56,352.4Z" transform="translate(-101.61 -42.65)"/><path class="cls-3" d="M998.56,352.4l-206.32-.33H781V910.24A455,455,0,0,1,729.43,934c.08-67.32.35-320.35.55-365.75,0-4.36,0-8.75,0-14H631.16c4.68,16.26,11.65,32,13.46,48.33,6.49,58.45-20.69,100.72-76.34,120.48-53.66,19-104.85,11-152.59-18.16-49.2-30-86-72.2-113.24-122.79-2.06-3.84-3.73-7.9-5.92-12.6,22.23-8.35,22.2-8.31,35.37,9,27.11,35.66,57.77,67,100.18,84.7C479.63,683.1,536.71,675,569.71,641.82c43.51-43.75,22.54-87.47-17.9-115-2-1.4-6.84-.58-9.37.89-23.34,13.48-48.88,18.1-75.3,18.34-4.28,0-10-3.12-12.67-6.62-12.35-16-16.23-34.61-14.89-54.56.54-8.07,4.6-11.22,12.54-11.06,19.3.4,38.65-.41,57.9.78,23.88,1.51,51.17-18.59,59.44-43.34a111.38,111.38,0,0,0,5.25-23.45c3.82-36.66-19.19-59.28-61.59-59.57A221.57,221.57,0,0,0,400.18,378c-8.52,4.85-13,4.27-18.25-4.06-9.35-15-19.66-29.34-30.13-44.8a185.11,185.11,0,0,1,65.4-30.77c63.88-16.13,122.16-5.11,169.73,41.59,34.46,33.83,45.21,75.91,28.86,123-6.72,19.33-21.34,31.55-40.79,42.89,6.25,2.83,10.28,6.22,14.34,6.25,47,.37,94,.24,143,.24V352c-20.53,0-42.17-1-63.66.36-15,1-24.05-3.35-28.6-18.1-2.79-9.05-7.64-17.44-12.32-27.8h352A461.84,461.84,0,0,1,998.56,352.4Z" transform="translate(-101.61 -42.65)"/></svg>