<svg id="Layer_1" data-name="Layer 1" xmlns="http://www.w3.org/2000/svg" viewBox="0 0 1868.3 631.33"><defs><style>.cls-1{fill:#f4f4f4;stroke:#fff;stroke-miterlimit:10;}.cls-2{fill:#fff;}.cls-3{fill:#201f1d;}</style></defs><path class="cls-1" d="M26.12,492.09c21.22-8,21.17-7.95,33.75,8.6,25.85,34,55.11,63.92,95.56,80.8,45.35,18.92,99.81,11.2,131.29-20.45,41.52-41.74,21.51-83.44-17.08-109.71-1.94-1.33-6.51-.55-8.93.84-22.27,12.87-46.62,17.27-71.83,17.51-4.08,0-9.5-3-12.08-6.32-11.79-15.24-15.5-33-14.21-52.05.52-7.7,4.39-10.69,11.95-10.54,18.41.38,36.88-.4,55.24.75,22.79,1.42,48.81-17.75,56.69-41.36a105,105,0,0,0,5-22.37c3.64-35-18.31-56.54-58.76-56.83A211.58,211.58,0,0,0,125,309.35c-8.12,4.64-12.43,4.08-17.4-3.87-8.92-14.29-18.76-28-28.76-42.74a176.85,176.85,0,0,1,62.39-29.34c60.94-15.39,116.54-4.88,161.92,39.68,32.87,32.27,43.13,72.41,27.53,117.35-6.4,18.45-20.36,30.1-38.91,40.92,6,2.69,9.8,5.92,13.67,5.95,44.85.36,89.71.23,136.43.23V284.6c-19.59,0-40.23-1-60.72.34-14.35.92-22.95-3.19-27.29-17.27-2.65-8.62-7.28-16.63-11.75-26.51H1160c-6.62,14.57-11.87,27.7-18.68,40-1.61,2.91-8.46,4-12.91,4.05q-102.58.34-205.17.09Q711.1,285,499,284.63H488.29V856.81c-16-7-31.36-13.34-46.34-20.62-2.1-1-2.87-6.47-2.86-9.87,0-45.72.31-289.74.52-335.46,0-4.17,0-8.34,0-13.33H345.34c4.46,15.5,11.12,30.53,12.85,46.1,6.19,55.75-19.74,96.08-72.83,114.92-51.19,18.17-100,10.5-145.56-17.31-46.93-28.66-82-68.88-108-117.15C29.8,500.43,28.21,496.55,26.12,492.09Z" transform="translate(-25.43 -226.24)"/><path class="cls-1" d="M1219.92,531c1.84,2,3.7,3.91,5.52,5.9,8.44,9.23,16,19.48,25.5,27.45,13.07,11,28.46,9.35,37.12-2,8.42-11,6.09-28.67-6.43-38.08-10.66-8-22.52-14.45-33.92-21.47-23.88-14.72-34.48-37.86-28.84-63.19,4.29-19.25,17-31,36.76-33.81,17.9-2.5,35,1.21,51.64,7.52,1.54.58,3.73,2.35,3.76,3.61.28,12.42.17,24.85-1.81,38.2-2.62-2.88-5-6.13-7.94-8.56-8.13-6.61-16-13.91-25-19-8.81-4.93-19.18-1.77-25.14,5.13a19.91,19.91,0,0,0-.59,24.89,105,105,0,0,0,20,19.78c12.35,9.53,26.06,17.33,38.15,27.15,16.08,13,19.75,30.59,13.68,50-6.26,20-21,31.29-40.85,35.59-21.59,4.69-41.42-2.06-60.3-12a8.78,8.78,0,0,1-4-6.36c-.37-13.11-.19-26.23-.19-39.35Z" transform="translate(-25.43 -226.24)"/><path class="cls-1" d="M1093.52,410.09v176h-32.08v-119l-2.53-.84c-1.23,3.09-2.53,6.15-3.68,9.27-9.45,25.55-18.68,51.19-28.49,76.6-1.44,3.71-5.58,6.38-8.47,9.54-2.36-3.07-5.54-5.8-6.95-9.25-11.52-28.22-22.7-56.57-35.28-88.12V585.94H944.9V408.79c10.44,0,20.79-.89,30.85.44,4,.53,9.21,5.21,10.83,9.22,10.68,26.6,20.53,53.54,31.94,83.78,6.6-18.45,12.16-33.93,17.67-49.42,2.71-7.59,5.18-15.26,8-22.79,8.31-22,12.29-24.26,36.52-21.07C1084.52,409.45,1088.35,409.64,1093.52,410.09Z" transform="translate(-25.43 -226.24)"/><path class="cls-1" d="M1495.52,585.57h-49.68V561.35c-2.49,3.79-4,6.21-5.63,8.57-12.44,18.07-33.42,26-53.3,20.18s-32-22.41-32.51-45.1c-.69-32.61-1.34-65.23-1.57-97.86-.09-11.43-.41-22.34-10.44-30.17a5.08,5.08,0,0,1-1.45-3c-.18-1.07.21-2.23.42-3.9h54.69c-.73,7.94-1.76,15.3-2,22.69q-1.59,45.47-2.7,90.93a75.33,75.33,0,0,0,1.42,16c2.85,14.69,12,22.59,24.89,22.16a25.46,25.46,0,0,0,24.23-24.8c.7-31.46.51-63-.35-94.42-.18-6.84-4.59-13.6-7.19-20.34-1.42-3.68-3.12-7.25-5.21-12.06H1491c-12,33.37-5.77,66.85-7.25,99.9-.24,5.37,0,10.75,0,16.13-.06,19.84-2.73,40.23,14.36,56.39Z" transform="translate(-25.43 -226.24)"/><path class="cls-1" d="M1788.35,464h-26.78c-2.75-35.37,3.24-43.77,34.35-54.55,20.42-7.08,40.82-5.31,60.63,2.67,13.69,5.51,21.67,15.95,21.87,30.88.33,24.13-.1,48.26-.18,72.39,0,8.06-1.12,16.32.27,24.13,2,11,5.67,21.66,8.87,32.4,1.23,4.12,3.13,8,5.62,14.3-16.44,0-30.51.22-44.56-.27-1.76-.06-4.25-3.65-4.9-6-1.28-4.66-1.51-9.62-2.43-16.33-13.82,19.5-31.17,27.68-53.3,26.38-21.86-1.29-38.19-18.31-39.11-40.2-.94-22.34,7-39.15,27.85-48.16,17.18-7.44,34.61-14.6,52.49-20,9.51-2.87,13.52-6.78,12.22-16.38-.36-2.63.11-5.36.09-8-.15-17.2-7.35-26.05-21.68-26.71-19.42-.9-27.85,6.08-29.79,24.58C1789.6,457.72,1789,460.31,1788.35,464Zm53.73,36.13-3.31-2.52c-13.64,6.35-28,11.57-40.72,19.38-11.64,7.13-12.62,23.56-4.36,36,5.9,8.88,19.31,12.54,29.74,5.78,6.21-4,12.44-11.32,14.16-18.26C1840.81,527.49,1840.76,513.64,1842.08,500.13Z" transform="translate(-25.43 -226.24)"/><path class="cls-1" d="M918.73,586.67c-11.94,0-21.9.59-31.7-.36-2.92-.28-6.82-4.38-7.87-7.52-3.73-11.25-6.42-22.84-9.69-35h-51c-3.18,11.38-5.91,23.25-10,34.6-1.26,3.45-6.19,7.32-9.84,7.77-9,1.12-18.16.37-29.31.37,5.58-18.36,10.51-35.08,15.74-51.7,12.19-38.71,24.73-77.31,36.59-116.12,2.33-7.64,6.31-10.78,13.79-10.48,35.38,1.44,27.62-6.11,37.76,27.13,14,45.75,28.07,91.45,42.06,137.19C916.43,576.51,917.22,580.56,918.73,586.67Zm-56.34-69.9C856.5,493,851,470.65,844.7,445.41l-19.85,71.36Z" transform="translate(-25.43 -226.24)"/><path class="cls-1" d="M643.38,333.5h71.55c-18.74,51.42-8.07,104.43-10.71,156.47-1.2,23.63.87,47.49,2.55,71.16.55,7.66,4.57,15.07,7.51,24.19H652.57c-.1-1.71-.79-3.52-.17-4.53,10.58-17.26,10.7-36.38,10.59-55.7-.29-47.61-.13-95.23-.44-142.84C662.44,364.92,660.54,347.9,643.38,333.5Z" transform="translate(-25.43 -226.24)"/><path class="cls-1" d="M1608.51,553.08l8.55,11.76c-15,16.42-31.74,26.53-54,24.83-16.13-1.24-27.87-11.35-28.46-27.38-1.39-37.51-1.75-75.06-2.5-112.6-.09-4.53,0-9.07,0-14.26-5.48-.32-10-.17-14.42-1-2.87-.52-7.06-1.8-7.84-3.83-1-2.55-.14-7.07,1.7-9.26,15.17-18.09,30.48-36.1,46.47-53.46,2.8-3.05,9-3,15.25-4.82V410.3l27.08-1.7c5.26-.34,11.7-2,12,6.12.27,6.64,3.33,15.57-8.47,16.39-7.24.5-14.5,1.87-21.7,1.59-8-.31-9.41,3.08-9.28,10.28.55,30.69.45,61.39.74,92.08.09,9.12-1.37,20.57,9.42,23.59,7.56,2.12,16.68-1.33,25.1-2.29C1608.27,555.27,1608.39,554.17,1608.51,553.08Z" transform="translate(-25.43 -226.24)"/><path class="cls-1" d="M1677.43,410.16v24.2c6.11-11.91,12.9-23.75,26.69-26,12.07-2,24.74-.42,39.63-.42-2.8,20.32-5.09,36.95-7.56,54.9-11.33-5.82-20.49-11.28-30.22-15.34-15-6.25-24.2-2.06-26.58,14.16s-1.82,32.81-1.74,49.25c.08,16,.21,32.21,2.21,48.08,1.09,8.62,6.12,16.75,10,26.59h-66.35c15.55-20.61,14-42.46,13.21-64.4s.65-43.78-.81-65.55c-.82-12.23-5.44-24.23-8.47-36.3-.71-2.8-1.94-5.47-3.27-9.15Z" transform="translate(-25.43 -226.24)"/><path class="cls-1" d="M623.53,472.74H527.35c-1.17-9.95-2.4-20.44-3.76-32h99.94Z" transform="translate(-25.43 -226.24)"/><rect class="cls-2" x="514.56" y="406.13" width="1336.23" height="207.91"/><path class="cls-3" d="M1892.89,615.73V855.45H523.59V615.73ZM540,840.28H1876.22V632.37H540Z" transform="translate(-25.43 -226.24)"/><path class="cls-3" d="M1711.87,755.81c8.29-14.51,8.07-23.81-1-37.7h24.75c-4.93,13-10.05,26.24-14.93,39.58-.91,2.5-2.08,6.89-1,7.78,3.28,2.66,7.56,4.15,11.56,5.84a31.11,31.11,0,0,0,5.61,1.25c-.45,2-.34,4.44-1.45,6-3.52,4.94-13.31,6-20.17,2.27-3.15-1.73-5.89-4.19-8.82-6.32-17,14.3-38.35,12.59-49.31-2-12.52-16.63-7.8-32.2,15.46-51.64-2.17-5.67-5.11-11.18-6.33-17-1.81-8.68,1.26-16.29,8.86-21.16,7.91-5.08,16.49-5.56,24.86-1,7.13,3.85,11.16,10.25,9.07,18.17-1.34,5.1-5,9.78-8.36,14.08-2.35,3-6,5-9.73,8.07Zm-11.25,9.38L1678.25,728c-12,13.38-14,26.82-5.88,36.17C1679.33,772.24,1689.89,772.72,1700.62,765.19Zm-15.37-48.25c12.16-10.6,15.2-19,10.34-26.08-1.67-2.45-6-4.86-8.63-4.37s-6.26,4.81-6.11,7.24C1681.29,700.87,1683.4,707.91,1685.25,716.94Z" transform="translate(-25.43 -226.24)"/><path class="cls-3" d="M849.72,683.48c15.14-4.79,21.5-2.53,28.76,9.44,11.88,19.61,23.9,39.14,37,60.54,0-20.31.56-38.5-.4-56.61-.24-4.42-5.46-8.58-9-13.77h22.8c-6.52,28.53-1.73,58.19-3,87.56-.17,3.9,0,7.82,0,11.76-6.55,2.62-10.16,0-13.34-5.21-13.69-22.61-27.64-45.07-42.56-69.33v15.86q0,16,0,32.11c0,9.22-1.28,18.83,9.35,24.82l-1.63,1.61H851.52c12.3-9,7.72-21.67,8.13-32.92.51-14.07.06-28.17.57-42.24.3-8.37-.35-15.78-8.81-20.18C850.52,686.45,850.29,684.7,849.72,683.48Z" transform="translate(-25.43 -226.24)"/><path class="cls-3" d="M702.87,680.15v36.7c4.85-2,9.2-4.37,13.86-5.51,15.89-3.88,26,4.18,26.17,20.45.07,8.17,0,16.35,0,24.52,0,9-2,18.6,8.54,24.92l-1.94,1.63H718.19L717.6,781c1.34-1.1,2.94-2,3.94-3.36,2.2-2.95,5.64-6,5.81-9.24a333.2,333.2,0,0,0-.24-34.62c-.36-6.72-2.5-13-11.21-13.1-7-.08-12.49,4.47-13,12.79a286.54,286.54,0,0,0-.15,38c.24,3.53,5.27,6.73,9,11.15H678.52c.1-1-.09-2.82.37-3,9.08-3.6,8.54-11.32,8.48-19-.12-17.19-.07-34.38-.1-51.57,0-13.1,0-13.1-7.67-22.79Z" transform="translate(-25.43 -226.24)"/><path class="cls-3" d="M629.49,691.42c-15.89-1.83-20.41,9.66-25,21.35-3.06-4.78-3-25.65-.29-27.89,1.31-1.07,3.59-1.31,5.43-1.32,18.59-.09,37.18,0,55.76-.13,4.55,0,6.71,1.36,6.8,6.16.14,7.32.72,14.63-.23,22.5-6.88-9.88-10.11-23.34-27-20.43,0,3.37,0,6.92,0,10.47.07,20.56.08,41.11.25,61.66.06,6.17-.37,12.8,8,14.65.86.19,1.36,2,2,3.1-1.32.79-2.63,2.23-4,2.26-10.36.19-20.73.1-31.65.1.34-2.26.23-4,.69-4.21,8.73-3,9.23-10.05,9.18-17.72C629.39,738.64,629.49,715.31,629.49,691.42Z" transform="translate(-25.43 -226.24)"/><path class="cls-3" d="M1124.63,732.73h-9.76c-2.47-10.37,0-15.55,9.16-19.59,18.79-8.26,35.25,2.14,35.26,22.28,0,9-.45,18.06.17,27,.43,6.29,2.32,12.49,3.69,19.36-8.89,4.29-15.58,3.42-18.87-3.91-3.1,1.82-6,4-9.3,5.37-9.18,4-19.55,1-23.81-6.63-4.76-8.51-2.38-20,6.16-25.36,6.38-4,13.25-8,20.45-9.68,10.42-2.49,6.35-9.6,6.27-15.31-.09-5.88-4.76-7.21-9.59-7.1-6.6.14-9.58,3.85-9.17,10.42A14.66,14.66,0,0,1,1124.63,732.73Zm19.54,13c-6.45,3.91-12.73,6.06-16.27,10.43-2.52,3.12-2.2,9.38-1.4,13.93.33,1.85,6.26,4.78,7.92,3.91,3.81-2,8.16-5.51,9.35-9.33C1145.36,759.59,1144.17,753.64,1144.17,745.73Z" transform="translate(-25.43 -226.24)"/><path class="cls-3" d="M975,777.84c-3.59,2.08-7,4.7-10.8,6.13A18.18,18.18,0,0,1,942.68,777c-4.4-6.72-4.57-16.16,2.05-21.59a81.76,81.76,0,0,1,24.56-13.83c9.2-3.19,6.54-9.87,5.62-15-.53-2.95-5.84-6.76-9.29-7.09-6-.56-10,3.23-9.37,10.09a12.15,12.15,0,0,1-.58,2.88h-9c-2.46-12.3.61-17.85,13-20.53,17-3.68,32.34,2.74,30.81,22.91-.48,6.43-.27,12.94-.12,19.41.22,9.3-2.1,19.18,6.26,26.62C986.58,785.81,978.91,784.35,975,777.84Zm0-31.86c-6.42,4-12.67,6.18-16.22,10.58-2.5,3.11-2.3,9.37-1.35,13.81.39,1.84,6.89,4.47,8.81,3.43,3.61-2,7.28-5.94,8.42-9.82C976.17,759.11,975.08,753.51,975.08,746Z" transform="translate(-25.43 -226.24)"/><path class="cls-3" d="M1421.57,745.78c0-18.2,8.12-30.34,23.48-34.88,12.75-3.77,25,1.06,32.77,12.89a42.47,42.47,0,0,1-.38,46.21c-11.6,17.26-36.73,18.66-47.91,1.8-4.9-7.38-6.82-16.74-10.1-25.19Zm14.33,2.07c1.06,5.74,1.5,11.1,3.13,16.07,2.07,6.32,5.51,11.92,13.52,11.7s11.94-5.31,14.13-12.26c3.67-11.65,3-23.27-.55-34.78-2-6.32-5.21-10.71-13.06-10.58-7.57.13-11.56,3.82-13.26,10.42S1437.15,741.52,1435.9,747.85Z" transform="translate(-25.43 -226.24)"/><path class="cls-3" d="M1540.68,695.2c-1.48-2-2.62-4.41-4.5-5.88-3.34-2.63-6.87-5.63-10.8-6.73-5-1.4-7.88,1.75-7.88,7.06V710.2l14.62,1.48c0,7.08-1.22,7.76-14,7.8,0,16.78-.36,33.58.29,50.34.13,3.43,4,6.72,7.09,11.54-10.29,2.26-20.29.76-30.75.93.26-1.94.13-4.22.64-4.38,8.37-2.48,7.74-9.13,7.7-15.7-.1-14.05,0-28.11,0-42.54l-8.28-2.08c-.8-6.12,1-9.14,8.31-6.25,0-4,.08-7,0-10-.45-15.87,16.14-30,31.65-27,6.29,1.22,10.33,3.92,8.79,11.31a69.31,69.31,0,0,0-.71,8.8Z" transform="translate(-25.43 -226.24)"/><path class="cls-3" d="M812.37,742.06H773.1c-3,13,.54,25.37,8.18,30.45C792.52,780,801.49,770.87,812,767c-5.66,13.55-16.58,20.86-27.83,19.72-14.63-1.49-25.77-11-27-26.6-.86-10.57.87-21.86,3.88-32.1,3.32-11.32,15-17.94,25.4-17.29,11.69.73,20.09,8.1,23.57,20.77C810.79,734.42,811.34,737.44,812.37,742.06Zm-40-6.9h22.73c.62-11.66-1.32-15.94-7.3-16.73C779.5,717.35,774.6,722.46,772.32,735.16Z" transform="translate(-25.43 -226.24)"/><path class="cls-3" d="M1381.3,740.13h-39.12c-.47,11.67-2,22.78,8.6,30.42s19.94-.6,29.75-4.3c-4.26,10.41-11.3,16.36-21.28,17.8-10.45,1.51-19.52-1.84-26.12-10.41-10.71-13.91-10.3-38.8.74-53,6.41-8.26,14.73-12,25.16-10.15,10.81,1.91,17.56,8.3,20,19C1379.82,732.74,1380.44,736,1381.3,740.13Zm-15.7-6.62c-.72-7,.68-14.7-8.77-16-8.22-1.15-13.31,4.81-14.06,16Z" transform="translate(-25.43 -226.24)"/><path class="cls-3" d="M1777.61,681.33h33.57c-.21,1.4,0,3.06-.57,3.36-9.16,4.94-8.48,13.47-8.39,21.94.16,15.78,0,31.55.19,47.32.08,9.65-1.56,19.92,10.36,25.75l-1.73,1.71h-33.22c.67-1.49,1-4.24,2.21-4.61,7.58-2.47,7.06-8.66,7.08-14.52,0-18,0-36-.13-54.08,0-9.66,1.19-19.86-11.08-24.9Z" transform="translate(-25.43 -226.24)"/><path class="cls-3" d="M1607.24,681.47c-8.8,8-6.28,17.95-6.31,27.23,0,16.64-.06,33.27.19,49.91.1,6.86-1,14.48,7.72,17.87.74.29,1.46,3,1,3.4-1.23,1.2-3,2.48-4.63,2.52-9,.24-18,.12-28.17.12.78-2.42.85-5,1.88-5.46,6.82-3.11,6.83-9,6.82-15q0-29.6,0-59.21c0-7.17,0-14.27-8.21-17.69-.68-.29-.83-1.85-1.57-3.66Z" transform="translate(-25.43 -226.24)"/><path class="cls-3" d="M1284.05,713.85c-7.34,5.21-6.3,11.25-3.58,17.74,3.77,9,7.47,18,12.23,29.52,4.54-13.3,8.82-23.92,11.51-34.94.79-3.2-3-7.5-5-12h21c-8.51,20.42-17.14,41.32-26,62.12-1,2.27-3.43,3.92-5.2,5.86-1.79-1.92-4.22-3.54-5.27-5.81-4.94-10.73-9.4-21.69-14.24-32.47-4.45-9.88-9.18-19.64-14-30Z" transform="translate(-25.43 -226.24)"/><path class="cls-3" d="M1180.35,720.1l-10.17-1,22.37-27.89,2.22,1.39v19.26c4.39,0,8.22-.32,12,.14,1.7.2,3.22,1.94,4.82,3-1.33,1.45-2.44,3.78-4,4.17-3.76.93-7.75.94-11,1.26,0,16-.44,31.59.19,47.18.3,7.37,6.23,8.25,16.4,2,0,2.79.78,5.31-.13,6.79-3.68,6-15.07,9.86-21.8,8-8.28-2.29-10.63-8.75-10.74-16.2C1180.18,752.49,1180.35,736.77,1180.35,720.1Z" transform="translate(-25.43 -226.24)"/><path class="cls-3" d="M1034.9,783.34c-9,0-17.93.09-26.9-.09-1.4,0-2.79-1.23-4.18-1.89,1-1.47,2-2.9,2.91-4.45,1.88-3.37,4.94-6.72,5.21-10.25.73-9.51,0-19.12.34-28.67.26-7.51.24-14.64-9.91-20.32l23.91-6.48c.37,4.33.62,7.27,1,11.31,4.5-7.33,8.13-14.58,18.25-10.48,9.62,3.89,4.82,10.82,5.06,17.7-2.94-.91-5-1.5-7.07-2.21-10.85-3.78-14.3-2.32-15.38,8.75a240,240,0,0,0-.43,32.85c.12,2.8,3.17,5.54,5,8.2a40.24,40.24,0,0,0,3.3,3.75Z" transform="translate(-25.43 -226.24)"/><path class="cls-3" d="M1056,717.1l23-5.65c.41,3.65.71,6.32,1.12,10,4.56-7.3,9-14,18.61-9.13,5.85,2.95,6,2.74,4,17.18-3.19-1.31-6.16-2.57-9.16-3.74-6.76-2.63-11.29-.49-11.69,6.78a346.21,346.21,0,0,0-.21,38c.17,3.33,4.27,6.46,7.31,10.72-10.37,3.91-20.81.78-31.71,2.32.5-2.53.45-5.12,1.15-5.34,7.92-2.53,7.15-9.07,7.3-15.15.14-5.63.15-11.27.06-16.9C1065.6,736.12,1069,725.15,1056,717.1Z" transform="translate(-25.43 -226.24)"/><path class="cls-3" d="M1251.56,781.82h-28.24c9.69-21.53,7.32-42.14,1.67-64.28l18.84-7c0,16.57.09,32,0,47.39C1243.73,766.41,1243.24,775,1251.56,781.82Z" transform="translate(-25.43 -226.24)"/><path class="cls-3" d="M1226.45,689.1c3.48-2.36,7.08-6.68,10.41-6.48,3,.18,8.24,5.41,8.07,8.13-.22,3.52-4.74,9.36-7.59,9.47-3.54.14-7.27-4.55-10.92-7.15Z" transform="translate(-25.43 -226.24)"/></svg>