<?xml version="1.0" encoding="utf-8"?>
<!-- Generator: Adobe Illustrator 24.2.3, SVG Export Plug-In . SVG Version: 6.00 Build 0)  -->
<svg version="1.1" id="Layer_1" xmlns="http://www.w3.org/2000/svg" xmlns:xlink="http://www.w3.org/1999/xlink" x="0px" y="0px"
	 viewBox="0 0 1920 1080" style="enable-background:new 0 0 1920 1080;" xml:space="preserve">
<style type="text/css">
	.st0{fill:#FFFFFF;}
	.st1{fill:#E0A84F;}
</style>
<path class="st0" d="M251.12,504.06c16.11-6.06,16.07-6.03,25.62,6.53c19.62,25.82,41.82,48.52,72.53,61.33
	c34.42,14.36,75.75,8.5,99.64-15.52c31.51-31.68,16.33-63.33-12.96-83.27c-1.48-1-4.94-0.42-6.78,0.64
	c-16.91,9.76-35.38,13.11-54.52,13.28c-3.1,0.03-7.21-2.27-9.17-4.79c-8.95-11.57-11.76-25.06-10.79-39.51
	c0.39-5.84,3.33-8.12,9.07-8c13.97,0.29,27.99-0.31,41.92,0.57c17.3,1.08,37.05-13.47,43.03-31.39c1.83-5.48,3.22-11.24,3.82-16.97
	c2.76-26.55-13.9-42.91-44.6-43.13c-29.09-0.2-56.5,7.13-81.77,21.54c-6.16,3.52-9.44,3.1-13.21-2.94
	c-6.77-10.84-14.24-21.24-21.82-32.43c14.7-10.8,30.37-17.98,47.35-22.27c46.25-11.68,88.45-3.71,122.89,30.11
	c24.95,24.49,32.73,54.96,20.89,89.07c-4.86,14-15.45,22.84-29.54,31.05c4.53,2.05,7.44,4.5,10.38,4.52
	c34.04,0.27,68.08,0.17,103.54,0.17c0-38.71,0-76.73,0-116.07c-14.86,0-30.53-0.74-46.08,0.25c-10.89,0.7-17.42-2.42-20.71-13.1
	c-2.01-6.54-5.53-12.62-8.92-20.12c207.28,0,413.17,0,620.71,0c-5.02,11.06-9.01,21.03-14.17,30.33c-1.22,2.2-6.42,3.06-9.8,3.07
	c-51.91,0.17-103.81,0.13-155.72,0.07c-107.31-0.14-214.62-0.32-321.93-0.48c-2.59,0-5.18,0-8.13,0c0,94.53,0,339,0,434.26
	c-12.11-5.28-23.81-10.12-35.17-15.65c-1.59-0.78-2.18-4.91-2.18-7.49c0.02-34.7,0.24-219.9,0.4-254.6c0.01-3.17,0-6.33,0-10.12
	c-24.61,0-48.54,0-71.55,0c3.39,11.77,8.44,23.17,9.75,34.99c4.7,42.31-14.98,72.93-55.27,87.22
	c-38.86,13.79-75.91,7.96-110.47-13.14c-35.62-21.75-62.25-52.28-81.99-88.91C253.91,510.39,252.7,507.45,251.12,504.06z"/>
<path class="st0" d="M1157.16,538.61c1.4,1.49,2.81,2.97,4.19,4.48c6.4,7,12.15,14.79,19.35,20.84c9.92,8.33,21.6,7.09,28.17-1.53
	c6.39-8.38,4.62-21.76-4.88-28.9c-8.09-6.08-17.09-10.96-25.74-16.29c-18.13-11.17-26.17-28.73-21.89-47.96
	c3.25-14.61,12.86-23.56,27.9-25.66c13.58-1.9,26.56,0.92,39.19,5.7c1.17,0.44,2.84,1.79,2.86,2.75c0.21,9.42,0.13,18.86-1.37,28.99
	c-1.99-2.18-3.76-4.65-6.03-6.49c-6.17-5.01-12.11-10.55-18.98-14.4c-6.68-3.74-14.55-1.34-19.08,3.89
	c-4.19,4.85-5.06,12.7-0.44,18.89c4.22,5.65,9.57,10.68,15.18,15.01c9.37,7.23,19.78,13.15,28.96,20.6
	c12.2,9.9,14.98,23.22,10.38,37.93c-4.76,15.21-15.97,23.74-31.01,27.01c-16.39,3.56-31.44-1.57-45.76-9.09
	c-1.48-0.78-2.96-3.15-3.01-4.83c-0.28-9.95-0.14-19.91-0.14-29.87C1155.73,539.32,1156.44,538.96,1157.16,538.61z"/>
<path class="st0" d="M1061.23,446.83c0,44.65,0,88.85,0,133.58c-8.15,0-15.84,0-24.35,0c0-30.53,0-60.41,0-90.29
	c-0.64-0.21-1.28-0.42-1.92-0.64c-0.93,2.35-1.92,4.67-2.79,7.04c-7.17,19.39-14.18,38.85-21.62,58.13
	c-1.09,2.82-4.23,4.85-6.42,7.24c-1.79-2.33-4.21-4.4-5.28-7.02c-8.74-21.42-17.23-42.94-26.78-66.88c0,32.2,0,61.91,0,92.3
	c-8.25,0-15.66,0-23.64,0c0-44.64,0-88.8,0-134.45c7.92,0,15.78-0.67,23.42,0.33c3.06,0.4,6.99,3.95,8.21,7
	c8.11,20.19,15.58,40.63,24.24,63.59c5.01-14,9.23-25.75,13.41-37.51c2.05-5.76,3.93-11.58,6.08-17.29
	c6.31-16.73,9.33-18.41,27.72-15.99C1054.4,446.35,1057.31,446.49,1061.23,446.83z"/>
<path class="st0" d="M1366.33,580.02c-12.37,0-24.75,0-37.7,0c0-5.53,0-11.21,0-18.38c-1.89,2.87-3.04,4.71-4.27,6.5
	c-9.44,13.71-25.36,19.73-40.45,15.32c-15.1-4.42-24.3-17.01-24.67-34.22c-0.53-24.75-1.02-49.51-1.2-74.27
	c-0.06-8.68-0.31-16.96-7.92-22.9c-0.6-0.47-0.97-1.46-1.1-2.26c-0.13-0.81,0.16-1.69,0.32-2.96c13.35,0,26.64,0,41.51,0
	c-0.55,6.02-1.34,11.61-1.53,17.22c-0.8,23-1.5,46-2.05,69.01c-0.1,4.04,0.32,8.17,1.08,12.14c2.16,11.15,9.07,17.14,18.89,16.81
	c9.43-0.32,18.14-8.19,18.38-18.82c0.54-23.88,0.39-47.79-0.26-71.66c-0.14-5.19-3.49-10.32-5.46-15.43
	c-1.08-2.79-2.36-5.5-3.95-9.16c16.14,0,30.82,0,46.93,0c-9.14,25.33-4.38,50.73-5.5,75.82c-0.18,4.07-0.02,8.16-0.03,12.24
	c-0.04,15.06-2.07,30.53,10.9,42.8C1367.6,578.54,1366.96,579.28,1366.33,580.02z"/>
<path class="st0" d="M1588.57,487.74c-7.27,0-13.83,0-20.32,0c-2.08-26.84,2.46-33.22,26.07-41.4c15.5-5.37,30.98-4.03,46.01,2.02
	c10.39,4.18,16.45,12.1,16.6,23.44c0.25,18.31-0.08,36.63-0.14,54.94c-0.02,6.12-0.85,12.38,0.21,18.31
	c1.49,8.33,4.3,16.44,6.73,24.59c0.93,3.13,2.38,6.11,4.27,10.86c-12.47,0-23.16,0.17-33.82-0.21c-1.34-0.05-3.22-2.77-3.71-4.56
	c-0.97-3.54-1.15-7.3-1.85-12.4c-10.48,14.8-23.65,21.01-40.45,20.02c-16.59-0.97-28.98-13.9-29.68-30.5
	c-0.71-16.95,5.34-29.72,21.14-36.56c13.04-5.64,26.27-11.08,39.84-15.17c7.21-2.17,10.25-5.14,9.27-12.43
	c-0.27-2,0.09-4.07,0.07-6.11c-0.11-13.05-5.57-19.77-16.45-20.27c-14.74-0.68-21.13,4.62-22.61,18.66
	C1589.52,482.98,1589.06,484.95,1588.57,487.74z M1629.35,515.17c-0.84-0.64-1.67-1.28-2.51-1.92
	c-10.35,4.82-21.23,8.79-30.91,14.71c-8.83,5.41-9.58,17.88-3.31,27.33c4.47,6.74,14.66,9.52,22.57,4.39
	c4.71-3.06,9.44-8.59,10.74-13.85C1628.39,535.93,1628.35,525.42,1629.35,515.17z"/>
<path class="st0" d="M928.57,580.85c-9.06,0-16.62,0.44-24.06-0.27c-2.21-0.21-5.18-3.32-5.97-5.71
	c-2.83-8.53-4.88-17.33-7.36-26.54c-12.52,0-25.24,0-38.7,0c-2.42,8.64-4.48,17.64-7.62,26.26c-0.95,2.61-4.7,5.55-7.47,5.9
	c-6.8,0.85-13.78,0.28-22.24,0.28c4.24-13.94,7.98-26.62,11.95-39.24c9.25-29.38,18.77-58.67,27.77-88.13
	c1.77-5.8,4.79-8.19,10.46-7.95c26.86,1.1,20.97-4.64,28.66,20.59c10.59,34.72,21.3,69.41,31.92,104.12
	C926.83,573.14,927.43,576.21,928.57,580.85z M885.81,527.8c-4.47-18.02-8.67-35-13.42-54.16c-5.41,19.45-10.17,36.53-15.07,54.16
	C866.73,527.8,875.32,527.8,885.81,527.8z"/>
<path class="st0" d="M719.59,388.7c20.27,0,37.22,0,54.31,0c-14.22,39.03-6.12,79.26-8.13,118.76c-0.91,17.93,0.66,36.04,1.94,54.01
	c0.41,5.81,3.46,11.44,5.7,18.36c-15.68,0-31.03,0-46.84,0c-0.07-1.3-0.6-2.67-0.13-3.44c8.03-13.1,8.13-27.62,8.04-42.28
	c-0.22-36.13-0.1-72.27-0.33-108.4C734.06,412.55,732.62,399.63,719.59,388.7z"/>
<path class="st0" d="M1452.08,555.35c2.16,2.97,4.31,5.94,6.49,8.93c-11.38,12.46-24.09,20.14-40.97,18.85
	c-12.24-0.94-21.15-8.62-21.6-20.78c-1.05-28.47-1.33-56.97-1.89-85.46c-0.07-3.44-0.01-6.89-0.01-10.83
	c-4.16-0.24-7.61-0.13-10.94-0.73c-2.18-0.4-5.36-1.37-5.96-2.91c-0.75-1.93-0.1-5.37,1.29-7.03c11.52-13.73,23.14-27.4,35.27-40.58
	c2.12-2.31,6.82-2.25,11.57-3.66c0,12.85,0,23.75,0,35.83c7.43-0.46,14-0.87,20.56-1.29c3.99-0.26,8.88-1.49,9.12,4.64
	c0.2,5.04,2.52,11.82-6.43,12.44c-5.5,0.38-11,1.42-16.47,1.21c-6.1-0.24-7.14,2.33-7.04,7.8c0.42,23.29,0.34,46.59,0.56,69.89
	c0.07,6.92-1.04,15.61,7.15,17.9c5.74,1.61,12.66-1.01,19.05-1.74C1451.91,557.01,1451.99,556.18,1452.08,555.35z"/>
<path class="st0" d="M1504.39,446.89c0,6.44,0,12.4,0,18.36c4.64-9.04,9.79-18.02,20.26-19.75c9.16-1.51,18.77-0.32,30.08-0.32
	c-2.12,15.42-3.86,28.04-5.74,41.67c-8.6-4.42-15.55-8.56-22.94-11.65c-11.37-4.74-18.37-1.56-20.17,10.75
	c-1.8,12.27-1.38,24.91-1.32,37.38c0.06,12.18,0.16,24.44,1.67,36.49c0.83,6.55,4.65,12.72,7.55,20.18c-16.96,0-32.87,0-50.36,0
	c11.8-15.64,10.59-32.22,10.03-48.87c-0.56-16.57,0.49-33.23-0.61-49.75c-0.62-9.29-4.13-18.39-6.43-27.55
	c-0.54-2.13-1.47-4.16-2.48-6.94C1477.87,446.89,1490.81,446.89,1504.39,446.89z"/>
<path class="st0" d="M704.53,491.38c-24.55,0-48.29,0-73,0c-0.89-8.51-1.82-17.49-2.85-27.38c25.61,0,50.42,0,75.85,0
	C704.53,472.59,704.53,480.97,704.53,491.38z"/>
<rect x="629" y="624.53" class="st1" width="1039" height="157.8"/>
<g>
	<path d="M645.26,649.94h54.5l30.73,73.4l30.61-73.4h55.91v6.81h-12.13c-3,0-5.07,0.44-6.21,1.32c-1.13,0.88-1.7,2.39-1.7,4.54
		v82.77c0,2.1,0.61,3.54,1.84,4.32c1.84,1.17,4.32,1.76,7.45,1.76h10.75v6.81h-68.9v-6.81h12.99c2.38,0,4.19-0.54,5.44-1.61
		c1.25-1.07,1.88-2.56,1.88-4.47v-88.63l-43,101.52h-8.09l-42.88-102.4v79.18c0,4.54,1.8,8.27,5.4,11.17
		c3.6,2.91,8.81,4.65,15.65,5.24v6.81h-50.24v-6.81c6.34-0.44,11.27-2.22,14.78-5.35c3.51-3.13,5.26-7.11,5.26-11.94v-70.03
		c0-2.98-0.64-4.96-1.92-5.93c-1.28-0.98-3.75-1.46-7.41-1.46h-10.71V649.94z"/>
	<path d="M920.88,724.44h-60.03c0.18,9.62,2.6,16.71,7.26,21.28c4.66,4.57,10.64,6.85,17.95,6.85c5.24,0,10.2-1.17,14.89-3.52
		c4.69-2.34,9.5-6.59,14.43-12.75l6.68,3.3c-5.19,7.32-11.12,12.56-17.8,15.71c-6.68,3.15-14.84,4.72-24.48,4.72
		c-14.03,0-25.38-3.42-34.04-10.25c-8.66-6.84-12.99-15.6-12.99-26.3c0-10.69,4.36-19.63,13.09-26.81
		c8.72-7.18,19.43-10.77,32.12-10.77c8.78,0,16.33,1.44,22.65,4.32c6.31,2.88,11.22,7.09,14.73,12.64
		C918.85,708.41,920.69,715.6,920.88,724.44z M860.85,717.77h28.57c2.68,0,4.59-0.54,5.75-1.61c1.16-1.07,1.73-3.03,1.73-5.86
		c0-5.66-1.61-10.05-4.84-13.15c-3.23-3.1-7.33-4.65-12.32-4.65c-5.9,0-10.42,2.1-13.55,6.3C863.05,703,861.28,709.32,860.85,717.77
		z"/>
	<path d="M991.88,649.65l42.55-1.32v89.66c0,4.59,0.38,7.68,1.14,9.27c0.76,1.59,1.94,2.74,3.52,3.44c1.59,0.71,4.64,1.06,9.15,1.06
		v6.52l-35.23,0.88l-2.56-13.33c-5.37,5.62-10.23,9.35-14.6,11.21c-4.36,1.86-9.81,2.78-16.33,2.78c-11.71,0-21.26-3.15-28.64-9.45
		c-7.38-6.3-11.07-14.84-11.07-25.64c0-11.92,3.9-21.36,11.71-28.35c7.81-6.98,17.51-10.48,29.1-10.48c6.22,0,11.76,1.09,16.61,3.26
		c4.85,2.17,9.26,5.7,13.22,10.58v-31.2c0-3.71-0.43-6.37-1.28-7.98c-0.86-1.61-2-2.72-3.43-3.33c-1.43-0.61-4.38-0.92-8.83-0.92
		h-5.03V649.65z M988.96,695.36c-7.08,0-12.35,2.49-15.83,7.47c-2.87,4.05-4.3,10.5-4.3,19.34c0,7.37,0.79,12.88,2.38,16.52
		c1.59,3.64,3.86,6.35,6.82,8.13c2.96,1.78,6.33,2.67,10.11,2.67c6.22,0,11.22-2.12,15.01-6.37c5.06-5.57,7.6-12.7,7.6-21.39
		c0-8.06-2.2-14.47-6.59-19.23C999.75,697.74,994.69,695.36,988.96,695.36z"/>
	<path d="M1066.28,689.72l38.07-1.39v58.23c0,1.56,0.62,2.77,1.88,3.63c1.25,0.85,3.16,1.28,5.72,1.28h5.77v6.81h-51.43v-6.81h5.67
		c3.05,0,5.2-0.56,6.45-1.68c1.25-1.12,1.88-3.08,1.88-5.86v-39.7c0-2.49-0.9-4.42-2.7-5.79c-1.8-1.37-4.29-2.05-7.46-2.05h-3.84
		V689.72z M1089.8,650.16c4.09,0,7.6,1.16,10.52,3.48c2.93,2.32,4.39,5.14,4.39,8.46c0,3.32-1.46,6.14-4.39,8.46
		c-2.93,2.32-6.44,3.48-10.52,3.48c-4.15,0-7.69-1.17-10.61-3.52c-2.93-2.34-4.39-5.15-4.39-8.42c0-3.32,1.46-6.14,4.39-8.46
		C1082.11,651.32,1085.65,650.16,1089.8,650.16z"/>
	<path d="M1232.82,749.78l3.84,5.27c-3.72,2.05-7.06,3.47-10.02,4.25c-2.96,0.78-6.21,1.17-9.75,1.17c-5.25,0-9.49-0.89-12.72-2.67
		c-3.23-1.78-6.19-5.14-8.88-10.07c-6.22,4.93-11.8,8.29-16.75,10.07c-4.94,1.78-10.52,2.67-16.74,2.67
		c-8.6,0-15.31-1.59-20.13-4.76c-4.82-3.17-7.23-7.2-7.23-12.09c0-7.37,4.45-13.28,13.36-17.73c7.14-3.52,22.79-7.03,46.94-10.55
		v-9.89c0-3.91-1.62-7.09-4.85-9.56c-3.23-2.47-7.57-3.7-12.99-3.7c-4.15,0-7.81,0.71-10.98,2.12c-2.14,0.93-3.2,1.86-3.2,2.78
		c0,0.49,0.4,1.22,1.19,2.2c1.71,2.2,2.56,4.37,2.56,6.52c0,2.74-1.13,4.94-3.39,6.63c-2.26,1.68-5.28,2.53-9.06,2.53
		c-4.03,0-7.26-0.92-9.7-2.75c-2.44-1.83-3.66-4.19-3.66-7.07c0-4.74,3.2-8.91,9.61-12.53c7.99-4.49,17.93-6.74,29.83-6.74
		c8.97,0,16.93,1.12,23.88,3.37c4.45,1.42,8.07,3.89,10.84,7.43c2.78,3.54,4.16,7.9,4.16,13.08v34.79c0,2.64,0.61,4.54,1.83,5.71
		c1.22,1.17,2.9,1.76,5.03,1.76C1227.63,752.05,1229.95,751.29,1232.82,749.78z M1194.75,721.73c-13.05,1.42-21.89,3.6-26.49,6.56
		c-4.61,2.96-6.91,6.85-6.91,11.68c0,3.42,1.08,6.04,3.25,7.87c2.16,1.83,5.2,2.75,9.1,2.75c6.04,0,11.06-1.73,15.05-5.2
		c3.99-3.47,5.99-8.2,5.99-14.21V721.73z"/>
	<path d="M1301.26,656.75v-6.81h69.45v6.81H1359c-3.36,0-5.7,0.51-7.05,1.54c-1.34,1.03-2.01,2.69-2.01,4.98v80.57
		c0,3.27,0.64,5.36,1.92,6.26c1.28,0.9,4.3,1.36,9.06,1.36h19.49c7.26,0,14.03-2.76,20.31-8.28c6.28-5.52,11.1-14.33,14.46-26.44
		h8.24l-3.11,41.53h-119.05v-6.81h11.9c2.62,0,4.61-0.54,5.95-1.61c1.34-1.07,2.01-2.59,2.01-4.54v-82.85c0-2-0.69-3.45-2.06-4.36
		c-1.37-0.9-3.74-1.36-7.09-1.36H1301.26z"/>
	<path d="M1536.43,749.78l3.84,5.27c-3.72,2.05-7.06,3.47-10.02,4.25c-2.96,0.78-6.21,1.17-9.75,1.17c-5.25,0-9.49-0.89-12.72-2.67
		c-3.23-1.78-6.19-5.14-8.88-10.07c-6.22,4.93-11.8,8.29-16.75,10.07c-4.94,1.78-10.52,2.67-16.74,2.67
		c-8.6,0-15.31-1.59-20.13-4.76c-4.82-3.17-7.23-7.2-7.23-12.09c0-7.37,4.45-13.28,13.36-17.73c7.14-3.52,22.79-7.03,46.94-10.55
		v-9.89c0-3.91-1.62-7.09-4.85-9.56c-3.23-2.47-7.57-3.7-12.99-3.7c-4.15,0-7.81,0.71-10.98,2.12c-2.14,0.93-3.2,1.86-3.2,2.78
		c0,0.49,0.4,1.22,1.19,2.2c1.71,2.2,2.56,4.37,2.56,6.52c0,2.74-1.13,4.94-3.39,6.63c-2.26,1.68-5.28,2.53-9.06,2.53
		c-4.03,0-7.26-0.92-9.7-2.75c-2.44-1.83-3.66-4.19-3.66-7.07c0-4.74,3.2-8.91,9.61-12.53c7.99-4.49,17.93-6.74,29.83-6.74
		c8.97,0,16.93,1.12,23.88,3.37c4.45,1.42,8.07,3.89,10.84,7.43c2.78,3.54,4.16,7.9,4.16,13.08v34.79c0,2.64,0.61,4.54,1.83,5.71
		c1.22,1.17,2.9,1.76,5.03,1.76C1531.25,752.05,1533.57,751.29,1536.43,749.78z M1498.37,721.73c-13.05,1.42-21.89,3.6-26.49,6.56
		c-4.61,2.96-6.91,6.85-6.91,11.68c0,3.42,1.08,6.04,3.25,7.87c2.16,1.83,5.2,2.75,9.1,2.75c6.04,0,11.06-1.73,15.05-5.2
		c3.99-3.47,5.99-8.2,5.99-14.21V721.73z"/>
	<path d="M1548.33,649.94l39.35-1.61v50.76c4.58-4.74,9.32-8.12,14.23-10.15c4.91-2.03,10.29-3.04,16.15-3.04
		c10.74,0,19.66,3.27,26.76,9.82c7.11,6.54,10.66,15.38,10.66,26.52c0,11.77-4.1,21.21-12.31,28.31
		c-8.21,7.1-18.62,10.66-31.25,10.66c-6.65,0-12.64-1.05-17.98-3.15c-5.34-2.1-10.05-5.23-14.14-9.38
		c-2.87,3.42-7.78,7.59-14.73,12.53l-5.31-2.27c2.38-8.98,3.57-18.08,3.57-27.3v-63.24c0-3.71-0.47-6.34-1.42-7.9
		c-0.95-1.56-2.21-2.64-3.8-3.22c-1.16-0.44-4.42-0.66-9.79-0.66V649.94z M1606.98,696.38c-3.54,0-6.85,0.98-9.93,2.93
		c-3.08,1.95-5.41,4.79-7,8.5c-1.59,3.71-2.38,9.5-2.38,17.36c0,10.69,1.74,18.2,5.22,22.52s7.96,6.48,13.45,6.48
		c5.67,0,10.55-2.39,14.64-7.18c4.09-4.79,6.13-12.13,6.13-22.05c0-9.91-1.94-17.15-5.81-21.72
		C1617.43,698.66,1612.66,696.38,1606.98,696.38z"/>
</g>
</svg>
