<?xml version="1.0" encoding="utf-8"?>
<!-- Generator: Adobe Illustrator 24.2.3, SVG Export Plug-In . SVG Version: 6.00 Build 0)  -->
<svg version="1.1" id="Layer_1" xmlns="http://www.w3.org/2000/svg" xmlns:xlink="http://www.w3.org/1999/xlink" x="0px" y="0px"
	 viewBox="0 0 1920 1080" style="enable-background:new 0 0 1920 1080;" xml:space="preserve">
<style type="text/css">
	.st0{fill:#FFFFFF;}
	.st1{fill:#E0A84F;}
	.st2{stroke:#000000;stroke-miterlimit:10;}
</style>
<path class="st0" d="M251.1,504.1c16.1-6.1,16.1-6,25.6,6.5c19.6,25.8,41.8,48.5,72.5,61.3c34.4,14.4,75.8,8.5,99.6-15.5
	c31.5-31.7,16.3-63.3-13-83.3c-1.5-1-4.9-0.4-6.8,0.6c-16.9,9.8-35.4,13.1-54.5,13.3c-3.1,0-7.2-2.3-9.2-4.8
	c-9-11.6-11.8-25.1-10.8-39.5c0.4-5.8,3.3-8.1,9.1-8c14,0.3,28-0.3,41.9,0.6c17.3,1.1,37-13.5,43-31.4c1.8-5.5,3.2-11.2,3.8-17
	c2.8-26.5-13.9-42.9-44.6-43.1c-29.1-0.2-56.5,7.1-81.8,21.5c-6.2,3.5-9.4,3.1-13.2-2.9c-6.8-10.8-14.2-21.2-21.8-32.4
	c14.7-10.8,30.4-18,47.4-22.3c46.3-11.7,88.4-3.7,122.9,30.1c25,24.5,32.7,55,20.9,89.1c-4.9,14-15.5,22.8-29.5,31
	c4.5,2,7.4,4.5,10.4,4.5c34,0.3,68.1,0.2,103.5,0.2c0-38.7,0-76.7,0-116.1c-14.9,0-30.5-0.7-46.1,0.3c-10.9,0.7-17.4-2.4-20.7-13.1
	c-2-6.5-5.5-12.6-8.9-20.1c207.3,0,413.2,0,620.7,0c-5,11.1-9,21-14.2,30.3c-1.2,2.2-6.4,3.1-9.8,3.1c-51.9,0.2-103.8,0.1-155.7,0.1
	c-107.3-0.1-214.6-0.3-321.9-0.5c-2.6,0-5.2,0-8.1,0c0,94.5,0,339,0,434.3c-12.1-5.3-23.8-10.1-35.2-15.7c-1.6-0.8-2.2-4.9-2.2-7.5
	c0-34.7,0.2-219.9,0.4-254.6c0-3.2,0-6.3,0-10.1c-24.6,0-48.5,0-71.5,0c3.4,11.8,8.4,23.2,9.8,35c4.7,42.3-15,72.9-55.3,87.2
	c-38.9,13.8-75.9,8-110.5-13.1c-35.6-21.8-62.3-52.3-82-88.9C253.9,510.4,252.7,507.5,251.1,504.1z"/>
<path class="st0" d="M1157.2,538.6c1.4,1.5,2.8,3,4.2,4.5c6.4,7,12.2,14.8,19.3,20.8c9.9,8.3,21.6,7.1,28.2-1.5
	c6.4-8.4,4.6-21.8-4.9-28.9c-8.1-6.1-17.1-11-25.7-16.3c-18.1-11.2-26.2-28.7-21.9-48c3.3-14.6,12.9-23.6,27.9-25.7
	c13.6-1.9,26.6,0.9,39.2,5.7c1.2,0.4,2.8,1.8,2.9,2.8c0.2,9.4,0.1,18.9-1.4,29c-2-2.2-3.8-4.6-6-6.5c-6.2-5-12.1-10.5-19-14.4
	c-6.7-3.7-14.6-1.3-19.1,3.9c-4.2,4.9-5.1,12.7-0.4,18.9c4.2,5.6,9.6,10.7,15.2,15c9.4,7.2,19.8,13.1,29,20.6
	c12.2,9.9,15,23.2,10.4,37.9c-4.8,15.2-16,23.7-31,27c-16.4,3.6-31.4-1.6-45.8-9.1c-1.5-0.8-3-3.2-3-4.8c-0.3-10-0.1-19.9-0.1-29.9
	C1155.7,539.3,1156.4,539,1157.2,538.6z"/>
<path class="st0" d="M1061.2,446.8c0,44.6,0,88.9,0,133.6c-8.2,0-15.8,0-24.3,0c0-30.5,0-60.4,0-90.3c-0.6-0.2-1.3-0.4-1.9-0.6
	c-0.9,2.4-1.9,4.7-2.8,7c-7.2,19.4-14.2,38.8-21.6,58.1c-1.1,2.8-4.2,4.8-6.4,7.2c-1.8-2.3-4.2-4.4-5.3-7
	c-8.7-21.4-17.2-42.9-26.8-66.9c0,32.2,0,61.9,0,92.3c-8.3,0-15.7,0-23.6,0c0-44.6,0-88.8,0-134.5c7.9,0,15.8-0.7,23.4,0.3
	c3.1,0.4,7,4,8.2,7c8.1,20.2,15.6,40.6,24.2,63.6c5-14,9.2-25.8,13.4-37.5c2-5.8,3.9-11.6,6.1-17.3c6.3-16.7,9.3-18.4,27.7-16
	C1054.4,446.4,1057.3,446.5,1061.2,446.8z"/>
<path class="st0" d="M1366.3,580c-12.4,0-24.8,0-37.7,0c0-5.5,0-11.2,0-18.4c-1.9,2.9-3,4.7-4.3,6.5c-9.4,13.7-25.4,19.7-40.4,15.3
	c-15.1-4.4-24.3-17-24.7-34.2c-0.5-24.8-1-49.5-1.2-74.3c-0.1-8.7-0.3-17-7.9-22.9c-0.6-0.5-1-1.5-1.1-2.3c-0.1-0.8,0.2-1.7,0.3-3
	c13.3,0,26.6,0,41.5,0c-0.6,6-1.3,11.6-1.5,17.2c-0.8,23-1.5,46-2.1,69c-0.1,4,0.3,8.2,1.1,12.1c2.2,11.2,9.1,17.1,18.9,16.8
	c9.4-0.3,18.1-8.2,18.4-18.8c0.5-23.9,0.4-47.8-0.3-71.7c-0.1-5.2-3.5-10.3-5.5-15.4c-1.1-2.8-2.4-5.5-3.9-9.2c16.1,0,30.8,0,46.9,0
	c-9.1,25.3-4.4,50.7-5.5,75.8c-0.2,4.1,0,8.2,0,12.2c0,15.1-2.1,30.5,10.9,42.8C1367.6,578.5,1367,579.3,1366.3,580z"/>
<path class="st0" d="M1588.6,487.7c-7.3,0-13.8,0-20.3,0c-2.1-26.8,2.5-33.2,26.1-41.4c15.5-5.4,31-4,46,2
	c10.4,4.2,16.4,12.1,16.6,23.4c0.3,18.3-0.1,36.6-0.1,54.9c0,6.1-0.8,12.4,0.2,18.3c1.5,8.3,4.3,16.4,6.7,24.6
	c0.9,3.1,2.4,6.1,4.3,10.9c-12.5,0-23.2,0.2-33.8-0.2c-1.3,0-3.2-2.8-3.7-4.6c-1-3.5-1.2-7.3-1.8-12.4c-10.5,14.8-23.7,21-40.4,20
	c-16.6-1-29-13.9-29.7-30.5c-0.7-17,5.3-29.7,21.1-36.6c13-5.6,26.3-11.1,39.8-15.2c7.2-2.2,10.3-5.1,9.3-12.4
	c-0.3-2,0.1-4.1,0.1-6.1c-0.1-13-5.6-19.8-16.4-20.3c-14.7-0.7-21.1,4.6-22.6,18.7C1589.5,483,1589.1,485,1588.6,487.7z
	 M1629.3,515.2c-0.8-0.6-1.7-1.3-2.5-1.9c-10.3,4.8-21.2,8.8-30.9,14.7c-8.8,5.4-9.6,17.9-3.3,27.3c4.5,6.7,14.7,9.5,22.6,4.4
	c4.7-3.1,9.4-8.6,10.7-13.8C1628.4,535.9,1628.3,525.4,1629.3,515.2z"/>
<path class="st0" d="M928.6,580.8c-9.1,0-16.6,0.4-24.1-0.3c-2.2-0.2-5.2-3.3-6-5.7c-2.8-8.5-4.9-17.3-7.4-26.5
	c-12.5,0-25.2,0-38.7,0c-2.4,8.6-4.5,17.6-7.6,26.3c-1,2.6-4.7,5.5-7.5,5.9c-6.8,0.8-13.8,0.3-22.2,0.3c4.2-13.9,8-26.6,12-39.2
	c9.3-29.4,18.8-58.7,27.8-88.1c1.8-5.8,4.8-8.2,10.5-8c26.9,1.1,21-4.6,28.7,20.6c10.6,34.7,21.3,69.4,31.9,104.1
	C926.8,573.1,927.4,576.2,928.6,580.8z M885.8,527.8c-4.5-18-8.7-35-13.4-54.2c-5.4,19.5-10.2,36.5-15.1,54.2
	C866.7,527.8,875.3,527.8,885.8,527.8z"/>
<path class="st0" d="M719.6,388.7c20.3,0,37.2,0,54.3,0c-14.2,39-6.1,79.3-8.1,118.8c-0.9,17.9,0.7,36,1.9,54
	c0.4,5.8,3.5,11.4,5.7,18.4c-15.7,0-31,0-46.8,0c-0.1-1.3-0.6-2.7-0.1-3.4c8-13.1,8.1-27.6,8-42.3c-0.2-36.1-0.1-72.3-0.3-108.4
	C734.1,412.5,732.6,399.6,719.6,388.7z"/>
<path class="st0" d="M1452.1,555.3c2.2,3,4.3,5.9,6.5,8.9c-11.4,12.5-24.1,20.1-41,18.8c-12.2-0.9-21.2-8.6-21.6-20.8
	c-1.1-28.5-1.3-57-1.9-85.5c-0.1-3.4,0-6.9,0-10.8c-4.2-0.2-7.6-0.1-10.9-0.7c-2.2-0.4-5.4-1.4-6-2.9c-0.8-1.9-0.1-5.4,1.3-7
	c11.5-13.7,23.1-27.4,35.3-40.6c2.1-2.3,6.8-2.3,11.6-3.7c0,12.9,0,23.8,0,35.8c7.4-0.5,14-0.9,20.6-1.3c4-0.3,8.9-1.5,9.1,4.6
	c0.2,5,2.5,11.8-6.4,12.4c-5.5,0.4-11,1.4-16.5,1.2c-6.1-0.2-7.1,2.3-7,7.8c0.4,23.3,0.3,46.6,0.6,69.9c0.1,6.9-1,15.6,7.2,17.9
	c5.7,1.6,12.7-1,19.1-1.7C1451.9,557,1452,556.2,1452.1,555.3z"/>
<path class="st0" d="M1504.4,446.9c0,6.4,0,12.4,0,18.4c4.6-9,9.8-18,20.3-19.8c9.2-1.5,18.8-0.3,30.1-0.3
	c-2.1,15.4-3.9,28-5.7,41.7c-8.6-4.4-15.6-8.6-22.9-11.6c-11.4-4.7-18.4-1.6-20.2,10.8c-1.8,12.3-1.4,24.9-1.3,37.4
	c0.1,12.2,0.2,24.4,1.7,36.5c0.8,6.5,4.7,12.7,7.6,20.2c-17,0-32.9,0-50.4,0c11.8-15.6,10.6-32.2,10-48.9
	c-0.6-16.6,0.5-33.2-0.6-49.8c-0.6-9.3-4.1-18.4-6.4-27.5c-0.5-2.1-1.5-4.2-2.5-6.9C1477.9,446.9,1490.8,446.9,1504.4,446.9z"/>
<path class="st0" d="M704.5,491.4c-24.5,0-48.3,0-73,0c-0.9-8.5-1.8-17.5-2.8-27.4c25.6,0,50.4,0,75.8,0
	C704.5,472.6,704.5,481,704.5,491.4z"/>
<rect x="629" y="624.5" class="st1" width="1039" height="157.8"/>
<rect x="1528" y="1423.4" style="fill:none;" width="3" height="9"/>
<g>
	<path class="st2" d="M738.4,679.1c-4.6-11.3-11.1-24.2-32.3-24.2c-13.4,0-22.1,7.2-22.1,17.1c0,9.7,8.5,15.5,28.8,23.3
		c24.7,9.4,40.3,18.5,40.3,36c0,20.8-22.6,36-55.5,36c-14.7,0-27.9-3-38.7-5.5c-1.4-4.1-5.3-22.4-6.9-30.7l9-1.6
		c4.6,11.1,17.5,30.4,40.1,30.4c14.1,0,22.6-6.7,22.6-18c0-10.2-8.3-16.2-27.6-24.2c-24-9.9-39.6-18.7-39.6-37.1
		c0-18.5,18.9-33.2,53.4-33.2c15.9,0,27.9,2.6,32.9,3.2c0.9,6.5,2.5,15.7,4.4,26.8L738.4,679.1z"/>
	<path class="st2" d="M824.8,684.2c32.5,0,53,18.7,53,39.9c0,28.4-26.7,42.7-53.9,42.7c-34.8,0-54.6-20.1-54.6-40.8
		C769.2,699,798.3,684.2,824.8,684.2z M822,691.3c-9.9,0-19.6,7.9-19.6,29.7c0,21.9,9.4,38.7,24,38.7c8.8,0,18.2-4.6,18.2-30.4
		C844.6,704.7,836.3,691.3,822,691.3z"/>
	<path class="st2" d="M984.9,747.6c-10.6,11.7-26,19.2-40.1,19.2c-31.8,0-50.5-18.4-50.5-38c0-13.1,8.8-25.4,23.5-33.7
		c15.2-8.6,29.7-10.9,40.1-10.9c8.8,0,16.1,1.9,20.3,4.2c3.2,1.8,4.4,3.9,4.4,6.5c-0.2,4.9-6.7,9.9-10.4,9.9c-1.6,0-3.2-0.5-5.1-1.9
		c-9.9-6.4-17.7-9.2-24-9.2c-9,0-19.8,6.7-19.8,25.8c0,23.5,22.3,31.1,32.3,31.1c9.4,0,16.4-1.9,24.7-7.4L984.9,747.6z"/>
	<path class="st2" d="M994.6,764.7v-6c12.4-1.2,13.8-1.9,13.8-14.5v-34.4c0-11.8-1.2-12.5-12-13.6v-5.8c14.5-1.2,29-3.5,41.7-6.4
		c0,7.4,0,14.7,0,21.9v38.3c0,12,0.9,13.2,14.3,14.5v6H994.6z M1021.5,673.2c-8.8,0-16.6-5.6-16.6-12.5c0-7.2,7.8-12.5,16.8-12.5
		c9.2,0,16.6,5.3,16.6,12.5C1038.3,667.6,1031,673.2,1021.5,673.2z"/>
	<path class="st2" d="M1141.1,766.8c-6.2,0-11.3-1.6-14.3-3.7c-3.2-2.1-4.8-4.6-6-6.5c-8.8,4.4-20,10.2-24.4,10.2
		c-19.8,0-31.3-11.8-31.3-22.8c0-9.4,5.5-13.6,17.7-17.3c13.6-3.9,31.8-8.1,37.1-11.7v-7.8c0-9.2-4.4-14.3-14.3-14.3
		c-3.9,0-7.1,1.4-9.2,3.5c-2.8,2.8-3.7,6.4-5.5,11.7c-1.6,4.8-5.3,6-9.9,6c-6,0-13.6-4.2-13.6-9.2c0-3.2,2.8-5.5,8.1-8.3
		c10.4-5.3,24-10.4,36.9-12.5c9.2,0,17,1.6,23.7,5.1c9.9,5.3,12.7,12.7,12.7,21.7v30.5c0,8.5,3.7,10.6,7.4,10.6
		c2.3,0,4.6-0.5,7.1-1.4l2.5,6L1141.1,766.8z M1119.9,722.3c-4.1,1.8-8.3,3.5-12.9,5.5c-7.1,2.8-11.3,6-11.3,12
		c0,9.9,9,13.4,14.1,13.4c3.2,0,6.5-0.2,10.1-2.8C1119.9,742.1,1119.9,730.6,1119.9,722.3z"/>
	<path class="st2" d="M1171,764.7v-6c13.1-1.6,13.6-2.5,13.6-13.6v-80.3c0-9.2-1.4-10.2-13.4-12.2v-5.6c15.9-1.2,32-3.4,43.1-6
		c0,7.9,0,15.9,0,24v80.1c0,11.7,0.7,12.4,13.8,13.6v6H1171z"/>
	<path class="st2" d="M1414.5,733.6c-1.8,7.6-8.3,26.3-10.4,31.1h-114.3v-6.5c20.3-1.1,22.1-2.3,22.1-17.1v-67.3
		c0-14.8-2.3-16.2-19.6-17.3v-6.5h71.9v6.5c-18,1.2-20.3,2.5-20.3,17.3v68.5c0,9.7,0.5,14.1,13.1,14.3c0.5,0.2,11.1,0.2,12,0.2
		c13.1,0,16.6-2.1,22.1-6.9c4.4-3.5,10.4-11.1,14.5-18.4L1414.5,733.6z"/>
	<path class="st2" d="M1506,766.8c-6.2,0-11.3-1.6-14.3-3.7c-3.2-2.1-4.8-4.6-6-6.5c-8.8,4.4-20,10.2-24.4,10.2
		c-19.8,0-31.3-11.8-31.3-22.8c0-9.4,5.5-13.6,17.7-17.3c13.6-3.9,31.8-8.1,37.1-11.7v-7.8c0-9.2-4.4-14.3-14.3-14.3
		c-3.9,0-7.1,1.4-9.2,3.5c-2.8,2.8-3.7,6.4-5.5,11.7c-1.6,4.8-5.3,6-9.9,6c-6,0-13.6-4.2-13.6-9.2c0-3.2,2.8-5.5,8.1-8.3
		c10.4-5.3,24-10.4,36.9-12.5c9.2,0,17,1.6,23.7,5.1c9.9,5.3,12.7,12.7,12.7,21.7v30.5c0,8.5,3.7,10.6,7.4,10.6
		c2.3,0,4.6-0.5,7.1-1.4l2.5,6L1506,766.8z M1484.8,722.3c-4.1,1.8-8.3,3.5-12.9,5.5c-7.1,2.8-11.3,6-11.3,12
		c0,9.9,9,13.4,14.1,13.4c3.2,0,6.5-0.2,10.1-2.8C1484.8,742.1,1484.8,730.6,1484.8,722.3z"/>
	<path class="st2" d="M1584.8,687.5c6.7-2.3,11.7-3.4,16.4-3.4c28.1,0,46.8,17.5,46.8,37.2c0,25.1-27,45.4-60.6,45.4
		c-13.4,0-25.1-1.8-41-6.4c0.2-4.2,0.2-9.2,0.2-13.6v-81.7c0-10.1-1.4-11.5-14.3-12.2v-6c12-0.9,31.3-3.4,44-6c0,6,0,12.5,0,18.9
		v30.7L1584.8,687.5z M1576.3,745.3c0,2.5,0.7,4.6,1.4,6c1.4,2.6,7.8,8.1,16.4,8.1c12.2,0,21.2-10.4,21.2-32.1
		c0-22.6-14.5-31.4-28.3-31.4c-4.8,0-7.1,0.5-10.6,1.2V745.3z"/>
</g>
</svg>
